<svg xmlns="http://www.w3.org/2000/svg" width="16" height="16" viewBox="0 0 16 16" fill="none">
  <path d="M11.4123 7.4481L5.83928 2.1381C5.74629 2.04945 5.62275 2 5.49428 2C5.36581 2 5.24227 2.04945 5.14928 2.1381L5.14328 2.1441C5.09805 2.18707 5.06203 2.2388 5.03741 2.29613C5.0128 2.35346 5.00011 2.4152 5.00011 2.4776C5.00011 2.53999 5.0128 2.60173 5.03741 2.65906C5.06203 2.7164 5.09805 2.76812 5.14328 2.8111L10.3913 7.8111L5.14328 12.8091C5.09805 12.8521 5.06203 12.9038 5.03741 12.9611C5.0128 13.0185 5.00011 13.0802 5.00011 13.1426C5.00011 13.205 5.0128 13.2667 5.03741 13.3241C5.06203 13.3814 5.09805 13.4331 5.14328 13.4761L5.14928 13.4821C5.24227 13.5707 5.36581 13.6202 5.49428 13.6202C5.62275 13.6202 5.74629 13.5707 5.83928 13.4821L11.4123 8.1721C11.4613 8.1254 11.5003 8.06923 11.527 8.00701C11.5536 7.94478 11.5674 7.87779 11.5674 7.8101C11.5674 7.7424 11.5536 7.67541 11.527 7.61318C11.5003 7.55096 11.4613 7.49479 11.4123 7.4481Z" fill="black"/>
</svg>