<svg xmlns="http://www.w3.org/2000/svg" width="60" height="60" viewBox="0 0 60 60" fill="none">
	<path d="M9.5999 30.5C9.5999 41.78 18.7199 50.9 29.9999 50.9C41.2799 50.9 50.3999 41.78 50.3999 30.5C50.3999 19.22 41.2799 10.1 29.9999 10.1C18.7199 10.1 9.5999 19.22 9.5999 30.5ZM47.9999 30.5C47.9999 40.46 39.9599 48.5 29.9999 48.5C20.0399 48.5 11.9999 40.46 11.9999 30.5C11.9999 20.54 20.0399 12.5 29.9999 12.5C39.9599 12.5 47.9999 20.54 47.9999 30.5Z" fill="#9747FF"/>
	<path d="M27.9598 20.54L37.9198 30.5L27.9598 40.46L29.6398 42.14L41.2798 30.5L29.6398 18.86L27.9598 20.54Z" fill="#9747FF"/>
	<path d="M39.6001 31.7V29.3L19.2001 29.3V31.7L39.6001 31.7Z" fill="#9747FF"/>
</svg>