<svg xmlns="http://www.w3.org/2000/svg" width="22" height="26" viewBox="0 0 22 26" fill="none">
  <path fill-rule="evenodd" clip-rule="evenodd" d="M9.92308 2.09574C9.17962 2.09574 8.57692 2.69111 8.57692 3.42553V4.75532H13.4231V3.42553C13.4231 2.69111 12.8204 2.09574 12.0769 2.09574H9.92308ZM15.0385 4.75532V3.42553C15.0385 1.80981 13.7125 0.5 12.0769 0.5H9.92308C8.28746 0.5 6.96154 1.80981 6.96154 3.42553V4.75532H1.30769C0.861616 4.75532 0.5 5.11254 0.5 5.55319C0.5 5.99384 0.861616 6.35106 1.30769 6.35106H1.6617L3.52282 22.8975C3.68947 24.3791 4.9572 25.5 6.46625 25.5H15.5338C17.0428 25.5 18.3105 24.3791 18.4772 22.8975L20.3383 6.35106H20.6923C21.1384 6.35106 21.5 5.99384 21.5 5.55319C21.5 5.11254 21.1384 4.75532 20.6923 4.75532H15.0385ZM18.713 6.35106H3.28702L5.12833 22.7213C5.20407 23.3948 5.78031 23.9043 6.46625 23.9043H15.5338C16.2197 23.9043 16.7959 23.3948 16.8717 22.7213L18.713 6.35106ZM8.84615 10.0745C9.29223 10.0745 9.65385 10.4317 9.65385 10.8723V19.383C9.65385 19.8236 9.29223 20.1809 8.84615 20.1809C8.40008 20.1809 8.03846 19.8236 8.03846 19.383V10.8723C8.03846 10.4317 8.40008 10.0745 8.84615 10.0745ZM13.1538 10.0745C13.5999 10.0745 13.9615 10.4317 13.9615 10.8723V19.383C13.9615 19.8236 13.5999 20.1809 13.1538 20.1809C12.7078 20.1809 12.3462 19.8236 12.3462 19.383V10.8723C12.3462 10.4317 12.7078 10.0745 13.1538 10.0745Z" fill="#293644"/>
</svg>