<svg xmlns="http://www.w3.org/2000/svg" width="22" height="24" viewBox="0 0 22 24" fill="none">
	<path fill-rule="evenodd" clip-rule="evenodd" d="M9.55438 0.653877C10.4546 0.15875 11.5456 0.15875 12.4459 0.653878L20.446 5.05389C20.7303 5.2103 20.9831 5.40922 21.1978 5.64024C21.7056 6.18674 22.0002 6.91309 22.0002 7.68254V16.3174C22.0002 17.4115 21.4046 18.4188 20.446 18.9461L12.4459 23.3461C11.5456 23.8412 10.4546 23.8412 9.55438 23.3461L1.55426 18.9461C0.595607 18.4188 0 17.4115 0 16.3174V7.68254C0 6.91303 0.294685 6.18662 0.80257 5.64011C1.01721 5.40914 1.26993 5.21027 1.55426 5.05389L9.55438 0.653877ZM11.482 2.40631C11.182 2.24127 10.8183 2.24127 10.5182 2.40631L3.44144 6.29849L11.0001 10.8338L18.5589 6.29855L11.482 2.40631ZM20.0002 7.76613L12.0001 12.5662V21.3087L19.4821 17.1937C19.8017 17.0179 20.0002 16.6821 20.0002 16.3174V7.76613ZM10.0001 21.3087V12.5662L2 7.766V16.3174C2 16.6821 2.19853 17.0179 2.51809 17.1937L10.0001 21.3087Z" fill="#293644"/>
</svg>