<svg xmlns="http://www.w3.org/2000/svg" width="24" height="24" viewBox="0 0 24 24" fill="none">
  <path d="M21.1875 12C21.1875 12.1492 21.127 12.2923 21.0192 12.3977C20.9115 12.5032 20.7654 12.5625 20.613 12.5625H12.762V20.25C12.762 20.3992 12.7014 20.5423 12.5937 20.6477C12.486 20.7532 12.3399 20.8125 12.1875 20.8125C12.0351 20.8125 11.889 20.7532 11.7813 20.6477C11.6736 20.5423 11.613 20.3992 11.613 20.25V12.5625H3.76197C3.60961 12.5625 3.46349 12.5032 3.35576 12.3977C3.24802 12.2923 3.1875 12.1492 3.1875 12C3.1875 11.8508 3.24802 11.7077 3.35576 11.6023C3.46349 11.4968 3.60961 11.4375 3.76197 11.4375H11.613V3.75C11.613 3.60082 11.6736 3.45774 11.7813 3.35225C11.889 3.24676 12.0351 3.1875 12.1875 3.1875C12.3399 3.1875 12.486 3.24676 12.5937 3.35225C12.7014 3.45774 12.762 3.60082 12.762 3.75V11.4375H20.613C20.7654 11.4375 20.9115 11.4968 21.0192 11.6023C21.127 11.7077 21.1875 11.8508 21.1875 12Z" fill="black"/>
</svg>