<svg xmlns="http://www.w3.org/2000/svg" width="23" height="24" viewBox="0 0 23 24" fill="none">
  <path fill-rule="evenodd" clip-rule="evenodd" d="M11.1021 2.94891C6.13156 2.94891 2.10213 6.97835 2.10213 11.9489C2.10213 13.6752 2.58716 15.2851 3.42788 16.6533L3.69906 17.0947L2.00607 21.045L5.95639 19.352L6.39773 19.6232C7.76594 20.4639 9.37586 20.9489 11.1021 20.9489C16.0727 20.9489 20.1021 16.9195 20.1021 11.9489C20.1021 6.97835 16.0727 2.94891 11.1021 2.94891ZM0.102127 11.9489C0.102127 5.87378 5.02699 0.948914 11.1021 0.948914C17.1773 0.948914 22.1021 5.87378 22.1021 11.9489C22.1021 18.024 17.1773 22.9489 11.1021 22.9489C9.18387 22.9489 7.37795 22.4571 5.80622 21.5923L2.79391 22.8833C1.13447 23.5944 -0.543415 21.9166 0.167779 20.2571L1.45877 17.2448C0.593957 15.6731 0.102127 13.8672 0.102127 11.9489Z" fill="#293644"/>
</svg>