<svg xmlns="http://www.w3.org/2000/svg" width="60" height="60" viewBox="0 0 60 60" fill="none">
	<path d="M50.3996 30.5C50.3996 41.78 41.2796 50.9 29.9996 50.9C18.7196 50.9 9.59961 41.78 9.59961 30.5C9.59961 19.22 18.7196 10.1 29.9996 10.1C41.2796 10.1 50.3996 19.22 50.3996 30.5ZM11.9996 30.5C11.9996 40.46 20.0396 48.5 29.9996 48.5C39.9596 48.5 47.9996 40.46 47.9996 30.5C47.9996 20.54 39.9596 12.5 29.9996 12.5C20.0396 12.5 11.9996 20.54 11.9996 30.5Z" fill="#9747FF"/>
	<path d="M32.0397 20.54L22.0797 30.5L32.0397 40.46L30.3597 42.14L18.7197 30.5L30.3597 18.86L32.0397 20.54Z" fill="#9747FF"/>
	<path d="M20.4004 31.7V29.3L40.8004 29.3V31.7L20.4004 31.7Z" fill="#9747FF"/>
</svg>